<svg width="147" height="40" viewBox="0 0 147 40" fill="none" xmlns="http://www.w3.org/2000/svg">
<g clip-path="url(#clip0_143_950)">
<path d="M40.2887 39.211H36.4203C36.2446 39.2117 36.0711 39.1721 35.9129 39.095C35.7547 39.018 35.6159 38.9055 35.507 38.7663C35.398 38.627 35.3219 38.4645 35.2843 38.2911C35.2467 38.1177 35.2486 37.9379 35.2899 37.7654L40.0154 17.6664C40.0751 17.4089 40.2193 17.1793 40.4246 17.0152C40.6299 16.8511 40.8841 16.7621 41.1458 16.7627H45.0467C45.2226 16.7619 45.3964 16.8016 45.5548 16.8788C45.7133 16.956 45.8522 17.0687 45.9612 17.2082C46.0701 17.3478 46.1462 17.5106 46.1836 17.6843C46.2211 17.858 46.2188 18.0381 46.1771 18.2108L41.4134 38.3097C41.3535 38.5658 41.2099 38.7941 41.0059 38.9576C40.8018 39.1212 40.5492 39.2104 40.2887 39.211ZM44.1618 14.0318C43.3548 14.0381 42.5683 13.7752 41.9242 13.2838C41.2586 12.7867 40.9258 12.0266 40.9258 11.0035C40.9221 10.453 41.038 9.90835 41.2651 9.40798C41.4823 8.92537 41.7876 8.48851 42.1651 8.12034C42.542 7.75426 42.9815 7.46036 43.4623 7.25293C43.9608 7.03646 44.4983 6.92646 45.0409 6.92985C45.8475 6.92318 46.6336 7.1857 47.2774 7.67668C47.9438 8.17457 48.277 8.93506 48.277 9.95815C48.2801 10.5082 48.1643 11.0523 47.9376 11.5525C47.7203 12.0347 47.4154 12.4714 47.0389 12.8401C46.6609 13.2063 46.2207 13.5006 45.7393 13.7087C45.2392 13.9249 44.7 14.0337 44.156 14.0283L44.1618 14.0318ZM53.8712 34.6879C55.3058 34.6879 56.2911 34.4815 56.827 34.0686C57.3628 33.6558 57.6304 33.2075 57.6296 32.7236C57.6353 32.4459 57.5848 32.1698 57.4813 31.9124C57.3681 31.6659 57.2024 31.4476 56.9961 31.2733C56.7104 31.0335 56.3997 30.8258 56.0695 30.6541C55.6741 30.441 55.1672 30.1921 54.5487 29.9072C53.8704 29.6075 53.2078 29.2726 52.5636 28.904C51.9628 28.5619 51.4162 28.1306 50.942 27.6246C50.478 27.1266 50.1061 26.5485 49.8441 25.9179C49.5765 25.2764 49.4433 24.5132 49.4433 23.6329C49.4433 21.33 50.2807 19.5093 51.9555 18.171C53.6303 16.8326 56.0726 16.1642 59.2824 16.1658C60.802 16.1658 62.1532 16.3367 63.3362 16.6785C63.9539 16.858 64.5125 17.0449 65.0121 17.2392C65.1694 17.3004 65.3127 17.3936 65.4331 17.5129C65.5534 17.6322 65.6483 17.7752 65.7119 17.933C65.7755 18.0909 65.8065 18.2602 65.8028 18.4306C65.7992 18.6009 65.7611 18.7687 65.6908 18.9236L64.5627 21.4065C64.4335 21.6937 64.2009 21.9205 63.9122 22.0408C63.6235 22.161 63.3003 22.1657 63.0084 22.0538C62.6362 21.9086 62.2246 21.7666 61.7737 21.6277C60.8848 21.3501 59.9603 21.2066 59.0299 21.2016C58.6429 21.2012 58.2563 21.2227 57.8717 21.266C57.508 21.3032 57.1521 21.3968 56.8165 21.5434C56.5103 21.672 56.2413 21.877 56.0347 22.1392C55.8252 22.4374 55.7211 22.7982 55.7394 23.1635C55.7394 23.7347 55.9575 24.1616 56.3938 24.4441C56.9875 24.8185 57.6007 25.1604 58.2307 25.4684C59.3287 26.0092 60.2433 26.5075 60.9745 26.9632C61.6288 27.3534 62.2202 27.8426 62.7281 28.4136C63.1629 28.9251 63.4865 29.5234 63.6778 30.1694C63.8873 30.9186 63.9868 31.6948 63.9732 32.4731C63.9705 33.4009 63.7764 34.3178 63.4033 35.1655C62.9976 36.0807 62.3822 36.8852 61.6081 37.5125C60.7911 38.1946 59.7488 38.749 58.4809 39.1759C57.213 39.6028 55.6927 39.8166 53.9198 39.8174C52.9237 39.8241 51.9285 39.7528 50.9432 39.6043C50.1506 39.4832 49.3675 39.3049 48.6001 39.0706C48.0148 38.8917 47.4431 38.6702 46.8894 38.408L46.8755 38.401C46.5889 38.2585 46.3682 38.0091 46.2601 37.7052C46.1521 37.4014 46.1651 37.067 46.2964 36.7727L47.4431 34.1822C47.51 34.0318 47.6057 33.8962 47.7247 33.7834C47.8437 33.6706 47.9837 33.5828 48.1365 33.525C48.2894 33.4672 48.452 33.4405 48.6151 33.4467C48.7782 33.4528 48.9384 33.4915 49.0866 33.5606C49.4147 33.7128 49.7892 33.8775 50.2101 34.0546C51.2115 34.4744 52.43 34.6844 53.8654 34.6844L53.8712 34.6879ZM73.4706 10.9918L76.2885 10.5505C76.5708 10.5064 76.8595 10.5334 77.1291 10.6291C77.3986 10.7248 77.6406 10.8861 77.8337 11.0989C78.0268 11.3116 78.165 11.5692 78.2361 11.8489C78.3072 12.1285 78.309 12.4215 78.2413 12.702L77.778 14.5902C77.7155 14.8485 77.712 15.1178 77.7675 15.3777C77.8231 15.6376 77.9364 15.8814 78.0988 16.0906C78.2612 16.2999 78.4685 16.4691 78.705 16.5855C78.9416 16.7019 79.2012 16.7625 79.4643 16.7627H82.0449C82.3082 16.7629 82.5681 16.8235 82.8049 16.9401C83.0417 17.0566 83.2491 17.2261 83.4116 17.4356C83.574 17.6451 83.6872 17.8892 83.7426 18.1494C83.798 18.4097 83.7941 18.6792 83.7312 18.9377L83.3189 20.6339C83.226 21.015 83.0094 21.3536 82.7037 21.5957C82.398 21.8378 82.0209 21.9694 81.6325 21.9695H77.3969C77.0064 21.9695 76.6273 22.1024 76.3207 22.3468C76.0141 22.5913 75.798 22.933 75.7071 23.3168L74.1678 29.823C74.0089 30.4237 73.9031 31.0376 73.8516 31.6572C73.7986 32.1582 73.8711 32.6646 74.0624 33.1299C74.2564 33.5539 74.5935 33.8942 75.0133 34.0897C75.4627 34.3168 76.0804 34.4304 76.8665 34.4304C77.5275 34.4327 78.1871 34.3684 78.8354 34.2384H78.8551C79.0947 34.1868 79.3423 34.1868 79.5819 34.2384C79.8215 34.2899 80.0476 34.3919 80.2456 34.5377C80.4436 34.6835 80.609 34.8697 80.731 35.0844C80.853 35.299 80.9289 35.5373 80.9538 35.7836L81.087 37.173C81.1263 37.5797 81.0241 37.9875 80.7978 38.3262C80.5716 38.6649 80.2356 38.9132 79.8477 39.0284C79.4068 39.1572 78.9497 39.2742 78.4764 39.3796C77.3243 39.6246 76.1488 39.7392 74.9716 39.7214C73.0297 39.7214 71.524 39.4299 70.4546 38.847C69.3851 38.264 68.6254 37.4676 68.1752 36.4578C67.7235 35.4472 67.5262 34.2876 67.5833 32.9788C67.6518 31.583 67.85 30.1968 68.1752 28.8385L72.0436 12.3204C72.1228 11.9808 72.3002 11.6727 72.5533 11.4354C72.8064 11.1981 73.1237 11.0425 73.4648 10.9883L73.4706 10.9918ZM101.085 20.7837C100.941 21.1792 100.659 21.5077 100.291 21.7072C99.9241 21.9067 99.4973 21.9633 99.0915 21.8665L98.8946 21.8208C98.3456 21.6921 97.5349 21.6277 96.4624 21.6277C96.0241 21.631 95.5867 21.6666 95.1536 21.7342H95.1107C94.7777 21.7875 94.4678 21.9396 94.2203 22.1711C93.9729 22.4026 93.7991 22.7032 93.7209 23.0347L90.1941 37.8836C90.1055 38.2624 89.8926 38.5997 89.5903 38.8407C89.2879 39.0817 88.9137 39.2122 88.5286 39.211H85.7488C85.4909 39.211 85.2364 39.1518 85.0044 39.038C84.7723 38.9242 84.5689 38.7588 84.4092 38.5541C84.2496 38.3493 84.1379 38.1107 84.0827 37.8561C84.0275 37.6015 84.0301 37.3375 84.0903 37.0841L88.4232 18.9096C88.4916 18.6176 88.6346 18.3489 88.8378 18.1302C89.041 17.9114 89.2974 17.7504 89.5814 17.6629C90.5443 17.3726 91.5905 17.094 92.7202 16.8271C94.2258 16.4713 95.9219 16.2933 97.8082 16.2933C98.5928 16.3 99.3759 16.3642 100.151 16.4853C100.274 16.504 100.395 16.524 100.513 16.545C101.545 16.7335 101.89 17.8327 101.53 18.83L101.085 20.7837ZM110.525 39.8092C109.033 39.8092 107.738 39.5813 106.641 39.1256C105.597 38.709 104.664 38.0516 103.917 37.2058C103.185 36.3521 102.633 35.3562 102.295 34.2794C101.916 33.0722 101.731 31.8116 101.746 30.5452C101.752 28.8046 102.029 27.0758 102.569 25.4227C103.1 23.7517 103.924 22.1907 105.001 20.8141C106.076 19.4445 107.412 18.3055 108.928 17.4639C110.473 16.5977 112.246 16.1642 114.248 16.1634C115.715 16.1634 117.003 16.3909 118.112 16.8459C119.163 17.2594 120.103 17.917 120.857 18.7656C121.588 19.6196 122.14 20.6153 122.478 21.6921C122.856 22.8991 123.042 24.1592 123.027 25.4251C123.022 27.1641 122.751 28.8919 122.225 30.5475C121.711 32.2128 120.91 33.7733 119.86 35.1573C118.802 36.5362 117.472 37.6772 115.954 38.5075C114.387 39.3722 112.576 39.8049 110.52 39.8057L110.525 39.8092ZM113.906 21.5481C113.023 21.5331 112.16 21.8188 111.457 22.3593C110.738 22.9167 110.135 23.612 109.683 24.4055C109.196 25.2516 108.833 26.1648 108.606 27.1166C108.376 28.0303 108.256 28.9689 108.248 29.9119C108.248 31.3627 108.473 32.4794 108.922 33.2621C109.372 34.0449 110.188 34.4351 111.372 34.4327C112.255 34.4481 113.118 34.1627 113.822 33.6227C114.54 33.0644 115.143 32.3683 115.595 31.5741C116.082 30.7284 116.444 29.8155 116.671 28.8642C116.902 27.9505 117.022 27.0119 117.03 26.0689C117.03 24.6181 116.805 23.5014 116.355 22.7187C115.905 21.9359 115.087 21.5415 113.901 21.5352L113.906 21.5481ZM134.508 39.8092C133.015 39.8092 131.72 39.5813 130.623 39.1256C129.579 38.709 128.646 38.0516 127.899 37.2058C127.167 36.352 126.615 35.3562 126.277 34.2794C125.899 33.072 125.714 31.8114 125.729 30.5452C125.735 28.8046 126.012 27.0758 126.552 25.4227C127.083 23.7517 127.907 22.1907 128.984 20.8141C130.059 19.4445 131.394 18.3055 132.91 17.4639C134.459 16.5977 136.233 16.1642 138.231 16.1634C139.698 16.1634 140.986 16.3909 142.095 16.8459C143.146 17.2594 144.087 17.917 144.84 18.7656C145.571 19.6199 146.123 20.6155 146.462 21.6921C146.839 22.8991 147.025 24.1592 147.011 25.4251C147.005 27.1641 146.734 28.8919 146.208 30.5475C145.694 32.2126 144.893 33.773 143.843 35.1573C142.785 36.5362 141.455 37.6772 139.937 38.5075C138.365 39.3722 136.553 39.8049 134.502 39.8057L134.508 39.8092ZM137.888 21.5481C137.005 21.5331 136.142 21.8188 135.439 22.3593C134.72 22.9163 134.117 23.6118 133.666 24.4055C133.178 25.2516 132.815 26.1648 132.588 27.1166C132.357 28.0303 132.237 28.9689 132.229 29.9119C132.229 31.3627 132.454 32.4794 132.905 33.2621C133.355 34.0449 134.171 34.4351 135.354 34.4327C136.237 34.4478 137.099 34.1625 137.803 33.6227C138.522 33.0648 139.125 32.3686 139.577 31.5741C140.063 30.7281 140.426 29.8153 140.653 28.8642C140.884 27.9505 141.005 27.0119 141.012 26.0689C141.012 24.6181 140.787 23.5014 140.337 22.7187C139.887 21.9359 139.069 21.5415 137.883 21.5352L137.888 21.5481ZM24.3447 15.55C22.8738 15.4774 20.5921 15.7561 18.9972 16.6679L21.1388 6.51078C21.653 4.35691 20.5064 2.57528 18.9381 0.98095C17.1858 -0.774924 15.2677 -0.00702175 14.7547 2.15153C14.7547 2.15153 9.90403 24.7812 9.85886 24.9779C8.96124 29.48 9.3504 33.3768 11.3553 35.8643C12.3977 37.1157 13.5779 37.8824 14.289 38.3424C16.8858 39.856 19.3435 40.0585 21.8013 39.9977C28.5189 39.506 31.9137 34.9361 33.3834 28.0308C35.1694 20.4817 30.9072 15.5055 24.3389 15.5418L24.3447 15.55ZM26.0936 29.9974C25.0408 32.3315 22.8437 34.7312 19.2694 33.5302C15.1299 31.8738 16.1283 27.5017 16.1283 27.5017L16.8487 24.6068C16.8487 24.6068 18.3822 20.559 22.9062 20.7018C24.6204 20.8832 25.4832 21.6944 26.265 22.7877C27.8889 24.8971 26.9171 28.341 26.0878 29.9892L26.0936 29.9974Z" fill="url(#paint0_linear_143_950)"/>
<path d="M8.5057 25.0118C8.57636 25.8312 7.688 26.3557 6.86682 25.9823C4.44267 24.8409 3.1084 23.826 1.80077 22.0163C0.642554 20.415 -0.275915 17.8256 0.0761832 16.7241C0.346048 15.8719 0.970325 15.3405 1.79614 15.7877C7.17143 18.7129 8.31228 22.7819 8.5057 25.0118Z" fill="url(#paint1_linear_143_950)"/>
<path d="M16.8281 24.6595C16.8281 24.6595 17.6632 22.2598 20.187 21.177C21.1544 20.7647 22.2107 20.6111 23.2539 20.731C23.0594 19.3568 24.7816 15.735 25.6155 15.6027C21.8699 15.2515 19.5824 16.3261 18.9674 16.6562C18.1601 19.6693 16.8281 24.6595 16.8281 24.6595Z" fill="url(#paint2_linear_143_950)"/>
<path d="M0.353516 16.1506C0.661426 16.1576 0.963371 16.2378 1.23492 16.3847C2.07115 16.8833 3.73667 17.9205 5.39177 20.669C6.25117 22.158 7.16268 23.9279 7.54489 26.1345C7.93637 26.0713 8.17381 25.939 8.4402 25.5667C8.74597 25.0084 8.45062 23.8015 8.11127 22.3863C7.91274 21.7299 7.65451 21.0935 7.33989 20.4852C7.33989 20.4852 6.11218 17.8046 2.68385 15.8099C1.95765 15.3569 1.36116 15.3944 0.995166 15.5407C0.606005 15.6238 0.353516 16.1506 0.353516 16.1506Z" fill="url(#paint3_linear_143_950)"/>
</g>
<defs>
<linearGradient id="paint0_linear_143_950" x1="65.67" y1="57.4358" x2="87.9305" y2="-3.08004" gradientUnits="userSpaceOnUse">
<stop stop-color="#FF2AA1"/>
<stop offset="0.12" stop-color="#FF3198"/>
<stop offset="0.32" stop-color="#FF4380"/>
<stop offset="0.57" stop-color="#FF6058"/>
<stop offset="0.86" stop-color="#FF8821"/>
<stop offset="1" stop-color="#FF9D05"/>
</linearGradient>
<linearGradient id="paint1_linear_143_950" x1="2.23991" y1="22.631" x2="6.17254" y2="19.3674" gradientUnits="userSpaceOnUse">
<stop stop-color="#FF2AA1"/>
<stop offset="0.22" stop-color="#FF3696"/>
<stop offset="0.61" stop-color="#FF5678"/>
<stop offset="1" stop-color="#FF7C53"/>
</linearGradient>
<linearGradient id="paint2_linear_143_950" x1="17.9782" y1="19.2011" x2="26.1855" y2="21.5035" gradientUnits="userSpaceOnUse">
<stop offset="0.17" stop-color="#D9007D"/>
<stop offset="0.18" stop-color="#DA017E" stop-opacity="0.98"/>
<stop offset="0.27" stop-color="#E30C87" stop-opacity="0.72"/>
<stop offset="0.37" stop-color="#EC158F" stop-opacity="0.5"/>
<stop offset="0.46" stop-color="#F31C95" stop-opacity="0.32"/>
<stop offset="0.55" stop-color="#F8229A" stop-opacity="0.18"/>
<stop offset="0.64" stop-color="#FC279E" stop-opacity="0.08"/>
<stop offset="0.72" stop-color="#FE29A0" stop-opacity="0.02"/>
<stop offset="0.8" stop-color="#FF2AA1" stop-opacity="0"/>
</linearGradient>
<linearGradient id="paint3_linear_143_950" x1="-0.580879" y1="18.8358" x2="9.58913" y2="22.5042" gradientUnits="userSpaceOnUse">
<stop stop-color="#FF8C05"/>
<stop offset="0.16" stop-color="#FC8A39"/>
<stop offset="0.36" stop-color="#F8886F"/>
<stop offset="0.5" stop-color="#F68790"/>
<stop offset="0.58" stop-color="#F5869D"/>
<stop offset="0.64" stop-color="#F37A9A"/>
<stop offset="0.75" stop-color="#EC5B93"/>
<stop offset="0.89" stop-color="#E22987"/>
<stop offset="1" stop-color="#D9007D"/>
</linearGradient>
<clipPath id="clip0_143_950">
<rect width="147" height="40" fill="white"/>
</clipPath>
</defs>
</svg>
